<mxfile host="app.diagrams.net" modified="2023-04-16T14:42:46.554Z" agent="5.0 (X11; Linux x86_64) AppleWebKit/537.36 (KHTML, like Gecko) Chrome/112.0.0.0 Safari/537.36" etag="gKt0D5xBIyv3QrRbxLcA" version="20.8.16" type="github">
  <diagram name="Page-1" id="NrJF28fdVkR-XfIdJEg4">
    <mxGraphModel dx="564" dy="700" grid="1" gridSize="10" guides="1" tooltips="1" connect="1" arrows="1" fold="1" page="1" pageScale="1" pageWidth="827" pageHeight="1169" math="0" shadow="0">
      <root>
        <mxCell id="0" />
        <mxCell id="1" parent="0" />
        <mxCell id="YVp_VeAw19pPSm7E-jZr-7" style="edgeStyle=orthogonalEdgeStyle;rounded=0;orthogonalLoop=1;jettySize=auto;html=1;exitX=0.5;exitY=1;exitDx=0;exitDy=0;entryX=0.5;entryY=0;entryDx=0;entryDy=0;" edge="1" parent="1" source="YVp_VeAw19pPSm7E-jZr-1" target="YVp_VeAw19pPSm7E-jZr-6">
          <mxGeometry relative="1" as="geometry" />
        </mxCell>
        <mxCell id="YVp_VeAw19pPSm7E-jZr-1" value="buffer" style="rounded=0;whiteSpace=wrap;html=1;" vertex="1" parent="1">
          <mxGeometry x="280" y="30" width="120" height="20" as="geometry" />
        </mxCell>
        <mxCell id="YVp_VeAw19pPSm7E-jZr-5" style="edgeStyle=orthogonalEdgeStyle;rounded=0;orthogonalLoop=1;jettySize=auto;html=1;exitX=1;exitY=0.5;exitDx=0;exitDy=0;entryX=0;entryY=0.5;entryDx=0;entryDy=0;strokeWidth=3;" edge="1" parent="1" source="YVp_VeAw19pPSm7E-jZr-4" target="YVp_VeAw19pPSm7E-jZr-1">
          <mxGeometry relative="1" as="geometry" />
        </mxCell>
        <mxCell id="YVp_VeAw19pPSm7E-jZr-4" value="Data from Audiocapture" style="text;html=1;strokeColor=none;fillColor=none;align=center;verticalAlign=middle;whiteSpace=wrap;rounded=0;" vertex="1" parent="1">
          <mxGeometry x="60" y="25" width="60" height="30" as="geometry" />
        </mxCell>
        <mxCell id="YVp_VeAw19pPSm7E-jZr-10" style="edgeStyle=orthogonalEdgeStyle;rounded=0;orthogonalLoop=1;jettySize=auto;html=1;exitX=0.5;exitY=1;exitDx=0;exitDy=0;entryX=0.5;entryY=0;entryDx=0;entryDy=0;" edge="1" parent="1" source="YVp_VeAw19pPSm7E-jZr-6" target="YVp_VeAw19pPSm7E-jZr-8">
          <mxGeometry relative="1" as="geometry" />
        </mxCell>
        <mxCell id="YVp_VeAw19pPSm7E-jZr-6" value="Full-wave Recifier" style="rounded=1;whiteSpace=wrap;html=1;" vertex="1" parent="1">
          <mxGeometry x="280" y="70" width="120" height="60" as="geometry" />
        </mxCell>
        <mxCell id="YVp_VeAw19pPSm7E-jZr-11" style="edgeStyle=orthogonalEdgeStyle;rounded=0;orthogonalLoop=1;jettySize=auto;html=1;exitX=0.5;exitY=1;exitDx=0;exitDy=0;entryX=0.5;entryY=0;entryDx=0;entryDy=0;" edge="1" parent="1" source="YVp_VeAw19pPSm7E-jZr-8" target="YVp_VeAw19pPSm7E-jZr-9">
          <mxGeometry relative="1" as="geometry" />
        </mxCell>
        <mxCell id="YVp_VeAw19pPSm7E-jZr-8" value="Low-pass IIR Filter" style="rounded=1;whiteSpace=wrap;html=1;" vertex="1" parent="1">
          <mxGeometry x="280" y="150" width="120" height="60" as="geometry" />
        </mxCell>
        <mxCell id="YVp_VeAw19pPSm7E-jZr-15" style="edgeStyle=orthogonalEdgeStyle;rounded=0;orthogonalLoop=1;jettySize=auto;html=1;exitX=1;exitY=0.5;exitDx=0;exitDy=0;entryX=0;entryY=0.5;entryDx=0;entryDy=0;strokeWidth=3;" edge="1" parent="1" source="YVp_VeAw19pPSm7E-jZr-9" target="YVp_VeAw19pPSm7E-jZr-14">
          <mxGeometry relative="1" as="geometry" />
        </mxCell>
        <mxCell id="YVp_VeAw19pPSm7E-jZr-9" value="out" style="rounded=0;whiteSpace=wrap;html=1;" vertex="1" parent="1">
          <mxGeometry x="280" y="230" width="120" height="20" as="geometry" />
        </mxCell>
        <mxCell id="YVp_VeAw19pPSm7E-jZr-14" value="Data to Visualiser" style="text;html=1;strokeColor=none;fillColor=none;align=center;verticalAlign=middle;whiteSpace=wrap;rounded=0;" vertex="1" parent="1">
          <mxGeometry x="520" y="225" width="60" height="30" as="geometry" />
        </mxCell>
      </root>
    </mxGraphModel>
  </diagram>
</mxfile>
